<?xml version="1.0" encoding="utf-8"?>
<!-- Generator: Adobe Illustrator 19.2.1, SVG Export Plug-In . SVG Version: 6.00 Build 0)  -->
<svg version="1.1" id="Capa_1" xmlns="http://www.w3.org/2000/svg" xmlns:xlink="http://www.w3.org/1999/xlink" x="0px" y="0px"
	 viewBox="0 0 174 63" style="enable-background:new 0 0 174 63;" xml:space="preserve">
<style type="text/css">
	.st0{fill:none;stroke:#EFAA42;stroke-width:2;}
</style>
<desc>Created with Sketch.</desc>
<path class="st0" d="M0,50.4l3.7-1.4l6.8-3.6l5.9-41.4l7.3,0.4L30.6,0l7.5,6.1l5.7-4.6l6,8.6l7.6,5.3l5.8-2l4.4,4.3l4.8-3.3l7.8,1.7
	l4-2.4l7.1,8.5l3.4,12.7l7.4,1.9l6.2,2.4l4.5-3.7l6.2,12.4l6.6,6.3l6.2-9.5l8,5.5l4.5,7.8l7.7-23.6l9.3-0.2l5,2.7l5.5-4.5"/>
</svg>
